<svg version="1.1" id="Layer_1" xmlns="http://www.w3.org/2000/svg" xmlns:xlink="http://www.w3.org/1999/xlink" x="0px" y="0px"
	 width="100%" viewBox="0 0 111 69" enable-background="new 0 0 111 69" xml:space="preserve">
<path fill="#000000" opacity="1.000000" stroke="none" 
	d="
M39.000000,1.000000 
	C51.354229,1.000000 63.708454,1.000000 76.850830,1.274266 
	C75.490135,3.015763 73.455414,4.701813 71.164474,5.896595 
	C68.080284,7.505083 66.761353,10.138464 68.613792,12.733684 
	C70.430107,15.278300 72.913803,13.776272 75.477005,12.274475 
	C78.887810,10.276058 83.082031,8.033214 86.720604,8.357042 
	C92.963776,8.912679 97.902390,12.840813 99.910645,19.232403 
	C101.872871,25.477510 99.908951,30.996428 95.201141,35.123089 
	C89.931000,39.742661 83.724403,40.456352 77.404221,37.083996 
	C65.989326,30.993164 54.535240,24.962812 43.319527,18.520689 
	C40.486717,16.893568 38.067223,16.154991 36.803307,19.125578 
	C36.255989,20.411930 38.137226,23.561590 39.741116,24.755968 
	C42.834011,27.059175 46.519943,28.562994 49.949303,30.418005 
	C58.306458,34.938560 66.520279,39.750332 75.044632,43.929123 
	C86.540001,49.564358 96.536667,46.056057 102.493721,38.634335 
	C112.565071,26.086710 108.100624,10.230423 95.238281,3.606146 
	C94.294991,3.120336 93.737083,1.886217 93.000000,0.999998 
	C99.315865,1.000000 105.631721,1.000000 111.947586,1.000000 
	C111.965057,1.148735 111.997826,1.297468 111.997841,1.446205 
	C112.000107,24.216547 112.000000,46.986889 112.000000,70.000000 
	C88.646332,70.000000 65.291824,70.000000 41.187103,69.645935 
	C41.164333,64.385773 41.891785,59.479683 42.704250,54.000195 
	C40.071213,54.000195 38.626938,53.995190 37.182705,54.001099 
	C31.935375,54.022564 30.634581,55.326752 31.018637,60.400394 
	C31.261341,63.606651 31.667278,66.800552 32.000000,70.000000 
	C21.704210,70.000000 11.408422,70.000000 1.056316,70.000000 
	C1.056316,47.121223 1.056316,24.242279 1.056316,1.000000 
	C7.683005,1.000000 14.372590,1.000000 21.870731,1.240847 
	C21.781206,2.155220 20.935307,2.916098 19.976896,3.488631 
	C11.317148,8.661771 6.847434,16.203413 8.093206,26.311804 
	C9.137775,34.787586 13.631456,41.131927 21.857054,44.377937 
	C30.466478,47.775421 40.757687,46.426037 46.486740,40.095959 
	C48.896301,37.433617 48.567020,34.960640 45.765663,33.640148 
	C44.462692,33.025963 41.764374,34.246464 40.259457,35.379967 
	C33.553288,40.431072 26.013132,40.303036 20.263374,34.766594 
	C14.159805,28.889471 13.639306,21.036045 19.057604,13.741706 
	C23.065870,8.345612 32.362713,6.759673 38.517635,10.184176 
	C49.771412,16.445604 61.038620,22.691326 72.471481,28.612968 
	C74.109344,29.461302 77.964241,29.230377 78.604012,28.173632 
	C80.197052,25.542284 78.318504,23.558710 75.583710,22.117672 
	C63.762421,15.888700 52.038437,9.474413 40.319160,3.054330 
	C39.692398,2.710975 39.431313,1.700122 39.000000,1.000000 
M87.994362,62.373661 
	C88.036118,57.851696 88.036118,57.851696 91.217796,56.458344 
	C91.836060,59.416412 92.438995,62.301155 93.041939,65.185898 
	C93.692505,65.055199 94.343071,64.924500 94.993637,64.793793 
	C94.993637,62.696663 95.469452,60.444759 94.852562,58.548290 
	C94.296013,56.837330 92.690735,54.414745 91.291039,54.227608 
	C87.041008,53.659386 82.666534,54.021862 78.362671,54.021862 
	C78.362671,58.041679 78.362671,61.418724 78.362671,65.005127 
	C84.000053,64.445930 77.672714,56.315765 85.020172,56.699295 
	C85.020172,58.810284 84.887741,60.888359 85.093109,62.932499 
	C85.163528,63.633438 86.079323,64.249443 86.608894,64.904259 
	C87.063461,64.345154 87.518036,63.786049 87.994362,62.373661 
M66.988159,57.908554 
	C67.022911,64.411888 67.022911,64.411888 75.609360,64.678680 
	C75.609360,61.176559 75.609360,57.683151 75.609360,55.264256 
	C72.566856,53.638966 70.289085,52.422192 66.941261,50.633801 
	C66.941261,53.058102 66.941261,55.062443 66.988159,57.908554 
M17.181953,64.989243 
	C17.413769,64.446899 17.952320,63.810822 17.820536,63.379601 
	C17.406498,62.024780 16.046614,60.603783 16.282309,59.462223 
	C18.058546,50.859215 17.833050,50.491196 9.391333,51.349609 
	C9.391333,55.823330 9.391333,60.305363 9.391333,64.787399 
	C9.758666,64.903778 10.125999,65.020157 10.493332,65.136536 
	C11.227893,63.680405 11.962453,62.224274 12.272513,61.609638 
	C13.534467,62.628300 14.993751,63.806252 17.181953,64.989243 
M29.998297,58.648037 
	C29.911617,53.320210 25.862736,53.339752 22.699102,54.290100 
	C21.038902,54.788822 19.372831,57.993042 19.198648,60.098694 
	C18.910458,63.582527 21.551868,64.973389 24.954353,65.026375 
	C28.837917,65.086845 30.228544,63.081367 29.998297,58.648037 
M46.141689,64.624802 
	C49.440033,65.200523 53.293961,66.007278 53.776054,61.360363 
	C54.014774,59.059330 52.719521,55.302387 51.004082,54.452137 
	C49.210224,53.563015 45.058399,54.568214 43.777451,56.194637 
	C41.966259,58.494328 42.176399,62.043030 46.141689,64.624802 
M99.000198,54.074535 
	C98.330902,54.742676 97.131111,55.378735 97.088409,56.084774 
	C96.940338,58.532791 96.267723,61.891289 97.546303,63.228298 
	C98.928253,64.673409 102.689972,65.174004 104.629059,64.315125 
	C106.065445,63.678909 106.903198,60.193054 106.850800,58.004341 
	C106.740356,53.390987 102.967834,54.002930 99.000198,54.074535 
M55.123703,54.854118 
	C55.123703,58.204208 55.123703,61.554302 55.123703,64.904388 
	C55.792965,65.004601 56.462227,65.104813 57.131489,65.205017 
	C57.421139,63.628132 57.565071,62.005486 58.041782,60.487335 
	C58.510475,58.994713 59.316933,57.608150 59.975178,56.175049 
	C60.654358,56.367432 61.333538,56.559814 62.012718,56.752197 
	C62.012718,58.821583 61.928509,60.896393 62.061321,62.957218 
	C62.104103,63.620991 62.626190,64.336319 63.116779,64.848038 
	C63.311806,65.051476 64.419273,64.805206 64.429512,64.698341 
	C64.663567,62.255417 65.261322,59.708858 64.782539,57.389896 
	C64.510780,56.073643 62.610592,54.626751 61.146454,54.147972 
	C59.511337,53.613300 57.539394,54.108685 55.123703,54.854118 
z"/>
<path fill="#3098D2" opacity="1.000000" stroke="none" 
	d="
M38.532394,1.000000 
	C39.431313,1.700122 39.692398,2.710975 40.319160,3.054330 
	C52.038437,9.474413 63.762421,15.888700 75.583710,22.117672 
	C78.318504,23.558710 80.197052,25.542284 78.604012,28.173632 
	C77.964241,29.230377 74.109344,29.461302 72.471481,28.612968 
	C61.038620,22.691326 49.771412,16.445604 38.517635,10.184176 
	C32.362713,6.759673 23.065870,8.345612 19.057604,13.741706 
	C13.639306,21.036045 14.159805,28.889471 20.263374,34.766594 
	C26.013132,40.303036 33.553288,40.431072 40.259457,35.379967 
	C41.764374,34.246464 44.462692,33.025963 45.765663,33.640148 
	C48.567020,34.960640 48.896301,37.433617 46.486740,40.095959 
	C40.757687,46.426037 30.466478,47.775421 21.857054,44.377937 
	C13.631456,41.131927 9.137775,34.787586 8.093206,26.311804 
	C6.847434,16.203413 11.317148,8.661771 19.976896,3.488631 
	C20.935307,2.916098 21.781206,2.155220 22.339642,1.240847 
	C27.354929,1.000000 32.709858,1.000000 38.532394,1.000000 
z"/>
<path fill="#3FB972" opacity="1.000000" stroke="none" 
	d="
M92.533142,0.999998 
	C93.737083,1.886217 94.294991,3.120336 95.238281,3.606146 
	C108.100624,10.230423 112.565071,26.086710 102.493721,38.634335 
	C96.536667,46.056057 86.540001,49.564358 75.044632,43.929123 
	C66.520279,39.750332 58.306458,34.938560 49.949303,30.418005 
	C46.519943,28.562994 42.834011,27.059175 39.741116,24.755968 
	C38.137226,23.561590 36.255989,20.411930 36.803307,19.125578 
	C38.067223,16.154991 40.486717,16.893568 43.319527,18.520689 
	C54.535240,24.962812 65.989326,30.993164 77.404221,37.083996 
	C83.724403,40.456352 89.931000,39.742661 95.201141,35.123089 
	C99.908951,30.996428 101.872871,25.477510 99.910645,19.232403 
	C97.902390,12.840813 92.963776,8.912679 86.720604,8.357042 
	C83.082031,8.033214 78.887810,10.276058 75.477005,12.274475 
	C72.913803,13.776272 70.430107,15.278300 68.613792,12.733684 
	C66.761353,10.138464 68.080284,7.505083 71.164474,5.896595 
	C73.455414,4.701813 75.490135,3.015763 77.319489,1.274266 
	C82.022095,1.000000 87.044182,1.000000 92.533142,0.999998 
z"/>
<path fill="#3098D2" opacity="1.000000" stroke="none" 
	d="
M32.449982,70.000000 
	C31.667278,66.800552 31.261341,63.606651 31.018637,60.400394 
	C30.634581,55.326752 31.935375,54.022564 37.182705,54.001099 
	C38.626938,53.995190 40.071213,54.000195 42.704250,54.000195 
	C41.891785,59.479683 41.164333,64.385773 40.718445,69.645935 
	C38.299988,70.000000 35.599972,70.000000 32.449982,70.000000 
M36.995514,62.403210 
	C38.846809,60.922630 40.189259,59.222870 37.688168,57.339954 
	C36.973076,56.801605 34.736504,56.878780 34.521591,57.319439 
	C33.467373,59.481052 33.455498,61.649841 36.995514,62.403210 
z"/>
<path fill="#3FB972" opacity="1.000000" stroke="none" 
	d="
M87.983490,62.800304 
	C87.518036,63.786049 87.063461,64.345154 86.608894,64.904259 
	C86.079323,64.249443 85.163528,63.633438 85.093109,62.932499 
	C84.887741,60.888359 85.020172,58.810284 85.020172,56.699295 
	C77.672714,56.315765 84.000053,64.445930 78.362671,65.005127 
	C78.362671,61.418724 78.362671,58.041679 78.362671,54.021862 
	C82.666534,54.021862 87.041008,53.659386 91.291039,54.227608 
	C92.690735,54.414745 94.296013,56.837330 94.852562,58.548290 
	C95.469452,60.444759 94.993637,62.696663 94.993637,64.793793 
	C94.343071,64.924500 93.692505,65.055199 93.041939,65.185898 
	C92.438995,62.301155 91.836060,59.416412 91.217796,56.458344 
	C88.036118,57.851696 88.036118,57.851696 87.983490,62.800304 
z"/>
<path fill="#3FB972" opacity="1.000000" stroke="none" 
	d="
M66.964706,57.487671 
	C66.941261,55.062443 66.941261,53.058102 66.941261,50.633801 
	C70.289085,52.422192 72.566856,53.638966 75.609360,55.264256 
	C75.609360,57.683151 75.609360,61.176559 75.609360,64.678680 
	C67.022911,64.411888 67.022911,64.411888 66.964706,57.487671 
z"/>
<path fill="#3098D2" opacity="1.000000" stroke="none" 
	d="
M16.817493,64.986725 
	C14.993751,63.806252 13.534467,62.628300 12.272513,61.609638 
	C11.962453,62.224274 11.227893,63.680405 10.493332,65.136536 
	C10.125999,65.020157 9.758666,64.903778 9.391333,64.787399 
	C9.391333,60.305363 9.391333,55.823330 9.391333,51.349609 
	C17.833050,50.491196 18.058546,50.859215 16.282309,59.462223 
	C16.046614,60.603783 17.406498,62.024780 17.820536,63.379601 
	C17.952320,63.810822 17.413769,64.446899 16.817493,64.986725 
z"/>
<path fill="#3098D2" opacity="1.000000" stroke="none" 
	d="
M29.998884,59.071785 
	C30.228544,63.081367 28.837917,65.086845 24.954353,65.026375 
	C21.551868,64.973389 18.910458,63.582527 19.198648,60.098694 
	C19.372831,57.993042 21.038902,54.788822 22.699102,54.290100 
	C25.862736,53.339752 29.911617,53.320210 29.998884,59.071785 
z"/>
<path fill="#3098D2" opacity="1.000000" stroke="none" 
	d="
M45.821358,64.357132 
	C42.176399,62.043030 41.966259,58.494328 43.777451,56.194637 
	C45.058399,54.568214 49.210224,53.563015 51.004082,54.452137 
	C52.719521,55.302387 54.014774,59.059330 53.776054,61.360363 
	C53.293961,66.007278 49.440033,65.200523 45.821358,64.357132 
z"/>
<path fill="#3FB972" opacity="1.000000" stroke="none" 
	d="
M99.418617,54.044807 
	C102.967834,54.002930 106.740356,53.390987 106.850800,58.004341 
	C106.903198,60.193054 106.065445,63.678909 104.629059,64.315125 
	C102.689972,65.174004 98.928253,64.673409 97.546303,63.228298 
	C96.267723,61.891289 96.940338,58.532791 97.088409,56.084774 
	C97.131111,55.378735 98.330902,54.742676 99.418617,54.044807 
z"/>
<path fill="#3098D2" opacity="1.000000" stroke="none" 
	d="
M55.418877,54.504944 
	C57.539394,54.108685 59.511337,53.613300 61.146454,54.147972 
	C62.610592,54.626751 64.510780,56.073643 64.782539,57.389896 
	C65.261322,59.708858 64.663567,62.255417 64.429512,64.698341 
	C64.419273,64.805206 63.311806,65.051476 63.116779,64.848038 
	C62.626190,64.336319 62.104103,63.620991 62.061321,62.957218 
	C61.928509,60.896393 62.012718,58.821583 62.012718,56.752197 
	C61.333538,56.559814 60.654358,56.367432 59.975178,56.175049 
	C59.316933,57.608150 58.510475,58.994713 58.041782,60.487335 
	C57.565071,62.005486 57.421139,63.628132 57.131489,65.205017 
	C56.462227,65.104813 55.792965,65.004601 55.123703,64.904388 
	C55.123703,61.554302 55.123703,58.204208 55.418877,54.504944 
z"/>
<path fill="#000000" opacity="1.000000" stroke="none" 
	d="
M36.650745,62.538662 
	C33.455498,61.649841 33.467373,59.481052 34.521591,57.319439 
	C34.736504,56.878780 36.973076,56.801605 37.688168,57.339954 
	C40.189259,59.222870 38.846809,60.922630 36.650745,62.538662 
z"/>
</svg>